<svg xmlns="http://www.w3.org/2000/svg" xmlns:xlink="http://www.w3.org/1999/xlink" version="1.1" x="0px" y="0px"
    viewBox="0 0 50 50" enable-background="new 0 0 50 50" xml:space="preserve" fill="#0085FF">
    <path
        d="M39.99,8.652c-8.303-1.793-11.795-4.756-11.914-4.857L25.031,1l-3.064,2.754c-0.035,0.033-3.615,3.096-11.959,4.898  L6.455,9.424v21.324c0,10.563,8.363,14.021,15.084,16.799c0.564,0.234,1.137,0.469,1.705,0.709L24.998,49l1.756-0.744  c0.568-0.24,1.139-0.475,1.705-0.709c6.721-2.777,15.086-6.236,15.086-16.799V9.424L39.99,8.652z M41.016,30.748  c0,8.871-6.873,11.713-13.523,14.461c-0.572,0.238-1.148,0.475-1.723,0.721l-0.771,0.322l-0.77-0.322  c-0.574-0.246-1.152-0.482-1.723-0.721c-6.65-2.748-13.523-5.59-13.523-14.461V11.465l1.559-0.34  c9.211-1.99,13.078-5.455,13.107-5.484l1.365-1.225l1.379,1.266c0.414,0.357,4.287,3.545,13.064,5.443l1.559,0.34V30.748z" />
    <path
        d="M20.947,25.287l-3.217-1.072l-1.934,2.318c0.123,1.367,0.604,2.734,1.43,4.07l3.152,0.496l1.518-2.016L20.947,25.287z" />
    <path
        d="M22.74,29.734l-1.48,1.975l1.891,2.959c0.609,0.17,1.564,0.182,1.848,0.182c0.285,0,1.24-0.012,1.85-0.182l1.889-2.959  l-1.479-1.975H22.74z" />
    <path
        d="M21.287,24.268l3.176-2.543v-3.199l-3.346-1.324c-1.5,0.695-2.83,1.82-3.752,3.176l0.658,2.807L21.287,24.268z" />
    <path
        d="M10.957,13.059c0,0,0,9.457,0,17.689s7.02,10.389,14.041,13.359c7.023-2.971,14.043-5.127,14.043-13.359s0-17.689,0-17.689  c-9.99-2.162-14.043-5.975-14.043-5.975S20.947,10.896,10.957,13.059z M35.273,25.598c0,5.666-4.611,10.271-10.275,10.271  c-5.662,0-10.273-4.605-10.273-10.271s4.611-10.271,10.273-10.271C30.656,15.332,35.268,19.938,35.273,25.598z" />
    <path
        d="M29.051,25.287l-0.949,3.797l1.518,2.016l3.152-0.496c0.826-1.336,1.307-2.703,1.43-4.07l-1.934-2.318L29.051,25.287z" />
    <path
        d="M31.975,23.184l0.66-2.807c-0.924-1.359-2.254-2.48-3.754-3.176l-3.346,1.324v3.199l3.176,2.543L31.975,23.184z" />
</svg>